<svg xmlns="http://www.w3.org/2000/svg" width="20" height="18" viewBox="0 0 20 18">
  <path d="M10.1162411,15.2343253 C14.9176299,10.9362481 16.3277568,9.51707952 17.3107262,7.76601121 C17.7817844,6.92686506 18,6.16777457 18,5.39507812 C18,3.46739798 16.5040621,2 14.5,2 C13.3577254,2 12.2518164,2.51156676 11.5143757,3.36640994 L10.0000331,5.12183996 L8.48565249,3.36644267 C7.74814401,2.51155825 6.64226209,2 5.5,2 C3.49593786,2 2,3.46739798 2,5.39507812 C2,6.16784592 2.21824321,6.92699973 2.68936248,7.76621667 C3.67237128,9.51727566 5.08266774,10.9365984 9.87068199,15.2227217 L10.0000532,15.33651 L10.1162411,15.2343253 Z M10,2.06001563 L11.3030918,0.93583878 C12.2399115,0.339912809 13.3482784,0 14.5,0 C17.6000962,0 20,2.35410938 20,5.39507812 C20,9.12234375 16.6000481,12.1144688 11.4501923,16.7244844 L10,18 L8.54980769,16.7244844 C3.39990385,12.1145156 0,9.12239063 0,5.39507812 C0,2.35410938 2.39990385,0 5.5,0 C6.65166605,0 7.75996074,0.33988003 8.6967513,0.935752579 L10,2.06001563 Z"/>
</svg>
